osim_states
version=1
nRows=4
nColumns=185
inDegrees=yes

# SIMM Motion File Header:
name osim_states
datacolumns 185
datarows 4
otherdata 1
range 0.03875426 0.03909021
endheader
time	platform_rx	platform_ry	platform_rz	platform_ty	pelvis_tilt	pelvis_list	pelvis_rotation	pelvis_tx	pelvis_ty	pelvis_tz	hip_flexion_r	hip_adduction_r	hip_rotation_r	knee_angle_r	patella_r_constrained_knee_angle	ankle_angle_r	subtalar_angle_r	mtp_angle_r	hip_flexion_l	hip_adduction_l	hip_rotation_l	knee_angle_l	patella_l_constrained_knee_angle	ankle_angle_l	subtalar_angle_l	mtp_angle_l	lumbar_extension	lumbar_bending	lumbar_rotation	arm_flex_r	arm_add_r	arm_rot_r	elbow_flex_r	pro_sup_r	wrist_flex_r	wrist_dev_r	arm_flex_l	arm_add_l	arm_rot_l	elbow_flex_l	pro_sup_l	wrist_flex_l	wrist_dev_l	platform_rx_u	platform_ry_u	platform_rz_u	platform_ty_u	pelvis_tilt_u	pelvis_list_u	pelvis_rotation_u	pelvis_tx_u	pelvis_ty_u	pelvis_tz_u	hip_flexion_r_u	hip_adduction_r_u	hip_rotation_r_u	knee_angle_r_u	patella_r_constrained_knee_angle_u	ankle_angle_r_u	subtalar_angle_r_u	mtp_angle_r_u	hip_flexion_l_u	hip_adduction_l_u	hip_rotation_l_u	knee_angle_l_u	patella_l_constrained_knee_angle_u	ankle_angle_l_u	subtalar_angle_l_u	mtp_angle_l_u	lumbar_extension_u	lumbar_bending_u	lumbar_rotation_u	arm_flex_r_u	arm_add_r_u	arm_rot_r_u	elbow_flex_r_u	pro_sup_r_u	wrist_flex_r_u	wrist_dev_r_u	arm_flex_l_u	arm_add_l_u	arm_rot_l_u	elbow_flex_l_u	pro_sup_l_u	wrist_flex_l_u	wrist_dev_l_u	glut_med1_r.activation	glut_med1_r.fiber_length	glut_med2_r.activation	glut_med2_r.fiber_length	glut_med3_r.activation	glut_med3_r.fiber_length	glut_min1_r.activation	glut_min1_r.fiber_length	glut_min2_r.activation	glut_min2_r.fiber_length	glut_min3_r.activation	glut_min3_r.fiber_length	semimem_r.activation	semimem_r.fiber_length	semiten_r.activation	semiten_r.fiber_length	bifemlh_r.activation	bifemlh_r.fiber_length	bifemsh_r.activation	bifemsh_r.fiber_length	sar_r.activation	sar_r.fiber_length	add_long_r.activation	add_long_r.fiber_length	add_brev_r.activation	add_brev_r.fiber_length	add_mag1_r.activation	add_mag1_r.fiber_length	add_mag2_r.activation	add_mag2_r.fiber_length	add_mag3_r.activation	add_mag3_r.fiber_length	tfl_r.activation	tfl_r.fiber_length	pect_r.activation	pect_r.fiber_length	grac_r.activation	grac_r.fiber_length	glut_max1_r.activation	glut_max1_r.fiber_length	glut_max2_r.activation	glut_max2_r.fiber_length	glut_max3_r.activation	glut_max3_r.fiber_length	iliacus_r.activation	iliacus_r.fiber_length	psoas_r.activation	psoas_r.fiber_length	quad_fem_r.activation	quad_fem_r.fiber_length	gem_r.activation	gem_r.fiber_length	peri_r.activation	peri_r.fiber_length	rect_fem_r.activation	rect_fem_r.fiber_length	vas_med_r.activation	vas_med_r.fiber_length	vas_int_r.activation	vas_int_r.fiber_length	vas_lat_r.activation	vas_lat_r.fiber_length	med_gas_r.activation	med_gas_r.fiber_length	lat_gas_r.activation	lat_gas_r.fiber_length	soleus_r.activation	soleus_r.fiber_length	tib_post_r.activation	tib_post_r.fiber_length	flex_dig_r.activation	flex_dig_r.fiber_length	flex_hal_r.activation	flex_hal_r.fiber_length	tib_ant_r.activation	tib_ant_r.fiber_length	per_brev_r.activation	per_brev_r.fiber_length	per_long_r.activation	per_long_r.fiber_length	per_tert_r.activation	per_tert_r.fiber_length	ext_dig_r.activation	ext_dig_r.fiber_length	ext_hal_r.activation	ext_hal_r.fiber_length	ercspn_r.activation	ercspn_r.fiber_length	ercspn_l.activation	ercspn_l.fiber_length	intobl_r.activation	intobl_r.fiber_length	intobl_l.activation	intobl_l.fiber_length	extobl_r.activation	extobl_r.fiber_length	extobl_l.activation	extobl_l.fiber_length
      0.03875426	     30.00000000	     -0.00000000	      0.00000000	     -0.00000000	    -14.11210482	      5.75839669	     15.86371467	     -0.42583946	      0.99038385	      0.34201183	     33.52011095	     -9.56585651	    -12.45320832	    -27.47184163	    -27.47184163	      8.91557608	     10.72458399	      0.00001318	     52.13915936	     -0.00000000	     -9.99811353	   -101.98648811	   -101.98648811	      6.49999992	      0.00000000	     -0.00000000	    -11.66575066	     -6.34825689	    -10.50881317	     -0.00000000	     -8.91003344	     -0.00000000	     72.06682857	     46.23690339	      0.00000000	      4.87402477	      0.00000000	     -8.91003344	      0.00000000	     72.06682857	     46.23690339	      0.00000000	      4.87402477	      0.00000000	      0.00000000	      0.00000000	     -0.00000000	    -14.87158539	    -69.55865375	   -242.37802175	     -0.00817195	     -1.97658445	      0.46319920	    438.67386389	      9.32786360	   -178.57868183	   -733.96259574	   -733.96259574	    473.63705016	    748.17084102	      0.00000000	     -0.00000000	     -0.00000000	      0.00000000	     -0.00000000	      0.00000000	     -0.00000000	      0.00000000	      0.00000000	    -63.07944494	     72.14875987	    257.15574196	     -0.00000000	     -0.00000000	      0.00000000	      0.00000000	     -0.00000000	      0.00000000	      0.00000000	      0.00000000	      0.00000000	     -0.00000000	     -0.00000000	      0.00000000	      0.00000000	     -0.00000000	      0.25471531	      0.05290265	      0.18462785	      0.08839207	      0.18949322	      0.06774908	      0.20695551	      0.07334144	      0.23490414	      0.06133073	      0.27940637	      0.03812684	      0.21511672	      0.07590768	      0.47793640	      0.24371696	      0.34720509	      0.11838141	      0.24658460	      0.17279529	      0.03322356	      0.45940857	      0.03322356	      0.11062231	      0.03322356	      0.13160386	      0.03322356	      0.07753451	      0.03637306	      0.10619141	      0.05037422	      0.13641761	      0.05726639	      0.08932965	      0.03322356	      0.06889271	      0.03322356	      0.35123478	      0.09887424	      0.09679858	      0.09136795	      0.10992644	      0.07283159	      0.13724810	      0.03322356	      0.08852877	      0.03322356	      0.08139838	      0.09724005	      0.04588278	      0.15076451	      0.01847440	      0.19753317	      0.01829063	      0.14956740	      0.10169220	      0.13368165	      0.07534550	      0.16853942	      0.07680813	      0.13688189	      0.07088615	      0.31998242	      0.05484446	      0.32376208	      0.05866146	      0.39236605	      0.04989239	      0.46610000	      0.02851910	      0.46610000	      0.02380777	      0.46610000	      0.03292641	      0.22867373	      0.09369998	      0.50000000	      0.05476611	      0.50000000	      0.05076096	      0.50000000	      0.08342626	      0.50000000	      0.09794956	      0.46610000	      0.10509056	      0.13383098	      0.13472254	      0.08248776	      0.12266794	      0.03322356	      0.09353298	      0.05976680	      0.08526455	      0.15659253	      0.13385694	      0.05588393	      0.10615731
      0.03887780	     30.00000000	     -0.00000000	      0.00000000	     -0.00000000	    -14.11394500	      5.74980755	     15.83365767	     -0.42584068	      0.99013992	      0.34206912	     33.57455424	     -9.56473194	    -12.47502725	    -27.56288597	    -27.56288597	      8.97372391	     10.81703600	      0.00001318	     52.13915936	     -0.00000000	     -9.99811353	   -101.98648811	   -101.98648811	      6.49999992	      0.00000000	     -0.00000000	    -11.67356968	     -6.33935499	    -10.47693637	     -0.00000000	     -8.91003344	     -0.00000000	     72.06682857	     46.23690339	      0.00000000	      4.87402477	      0.00000000	     -8.91003344	      0.00000000	     72.06682857	     46.23690339	      0.00000000	      4.87402477	      0.00000000	      0.00000000	      0.00000000	     -0.00000000	    -14.91918387	    -69.49891749	   -244.22579361	     -0.01155503	     -1.97258538	      0.46441665	    442.71062000	      8.89473818	   -174.66960019	   -739.96017475	   -739.96017475	    467.79929004	    748.54880759	      0.00000000	     -0.00000000	     -0.00000000	      0.00000000	     -0.00000000	      0.00000000	     -0.00000000	      0.00000000	      0.00000000	    -63.50853757	     71.97224785	    258.91135609	     -0.00000000	     -0.00000000	      0.00000000	      0.00000000	     -0.00000000	      0.00000000	      0.00000000	      0.00000000	      0.00000000	     -0.00000000	     -0.00000000	      0.00000000	      0.00000000	     -0.00000000	      0.25662782	      0.05292941	      0.18638227	      0.08842397	      0.19170355	      0.06777650	      0.20749972	      0.07336288	      0.23589432	      0.06135293	      0.28106717	      0.03814688	      0.21500396	      0.07589342	      0.47796089	      0.24370453	      0.34715770	      0.11837034	      0.24656384	      0.17275657	      0.03318416	      0.45932331	      0.03318416	      0.11060261	      0.03318416	      0.13160203	      0.03318416	      0.07753537	      0.03737152	      0.10620517	      0.05159619	      0.13643725	      0.05720453	      0.08933261	      0.03318416	      0.06887390	      0.03318416	      0.35120829	      0.10033028	      0.09683081	      0.09285608	      0.10995889	      0.07489360	      0.13728119	      0.03318416	      0.08850208	      0.03318416	      0.08137709	      0.09706625	      0.04587285	      0.15044929	      0.01846360	      0.19841190	      0.01829905	      0.15008061	      0.10171754	      0.13537363	      0.07540084	      0.17043318	      0.07686584	      0.13860920	      0.07094118	      0.32085328	      0.05485606	      0.32461961	      0.05867211	      0.39358625	      0.04992257	      0.46610000	      0.02852198	      0.46610000	      0.02381024	      0.46610000	      0.03293243	      0.22856934	      0.09364516	      0.50000000	      0.05481741	      0.50000000	      0.05081157	      0.50000000	      0.08340387	      0.50000000	      0.09788118	      0.46610000	      0.10500286	      0.13382221	      0.13471688	      0.08293188	      0.12268364	      0.03318416	      0.09352465	      0.05967627	      0.08526124	      0.15653188	      0.13382320	      0.05613202	      0.10616844
      0.03898401	     30.00000000	     -0.00000000	      0.00000000	     -0.00000000	    -14.11553137	      5.74242896	     15.80763821	     -0.42584206	      0.98993059	      0.34211850	     33.62174752	     -9.56380364	    -12.49340026	    -27.64173244	    -27.64173244	      9.02314755	     10.89653871	      0.00001318	     52.13915936	     -0.00000000	     -9.99811353	   -101.98648811	   -101.98648811	      6.49999992	      0.00000000	     -0.00000000	    -11.68033408	     -6.33171907	    -10.44936120	     -0.00000000	     -8.91003344	     -0.00000000	     72.06682857	     46.23690339	      0.00000000	      4.87402477	      0.00000000	     -8.91003344	      0.00000000	     72.06682857	     46.23690339	      0.00000000	      4.87402477	      0.00000000	      0.00000000	      0.00000000	     -0.00000000	    -14.95276318	    -69.44832695	   -245.73838661	     -0.01432275	     -1.96929934	      0.46543279	    445.95801970	      8.59758777	   -171.31583157	   -744.75248025	   -744.75248025	    462.92299151	    748.52593507	      0.00000000	     -0.00000000	     -0.00000000	      0.00000000	     -0.00000000	      0.00000000	     -0.00000000	      0.00000000	      0.00000000	    -63.87191685	     71.82074699	    260.34925209	     -0.00000000	     -0.00000000	      0.00000000	      0.00000000	     -0.00000000	      0.00000000	      0.00000000	      0.00000000	      0.00000000	     -0.00000000	     -0.00000000	      0.00000000	      0.00000000	     -0.00000000	      0.25822591	      0.05295232	      0.18787696	      0.08845148	      0.19361473	      0.06780032	      0.20814725	      0.07338242	      0.23670978	      0.06137189	      0.28247860	      0.03816412	      0.21490683	      0.07588118	      0.47798116	      0.24369385	      0.34711678	      0.11836090	      0.24654546	      0.17272267	      0.03315034	      0.45924913	      0.03315034	      0.11058561	      0.03315034	      0.13160060	      0.03315117	      0.07753642	      0.03827229	      0.10621747	      0.05266916	      0.13645453	      0.05714970	      0.08933503	      0.03315034	      0.06885765	      0.03315034	      0.35118541	      0.10158814	      0.09685882	      0.09414731	      0.10998717	      0.07669971	      0.13731034	      0.03315034	      0.08847854	      0.03315034	      0.08135823	      0.09691716	      0.04586482	      0.15017901	      0.01845430	      0.19920104	      0.01830638	      0.15052556	      0.10173950	      0.13683869	      0.07544895	      0.17207018	      0.07691601	      0.14010635	      0.07098902	      0.32159440	      0.05486567	      0.32534916	      0.05868092	      0.39462911	      0.04994813	      0.46610000	      0.02852438	      0.46610000	      0.02381229	      0.46610000	      0.03293747	      0.22847917	      0.09359804	      0.50000000	      0.05486158	      0.50000000	      0.05085522	      0.50000000	      0.08338516	      0.50000000	      0.09782273	      0.46610000	      0.10492748	      0.13381459	      0.13471201	      0.08331435	      0.12269719	      0.03315034	      0.09351759	      0.05959858	      0.08525818	      0.15647923	      0.13379395	      0.05634608	      0.10617805
      0.03909021	     30.00000000	     -0.00000000	      0.00000000	     -0.00000000	    -14.11712094	      5.73505569	     15.78146175	     -0.42584372	      0.98972161	      0.34216799	     33.66927500	     -9.56290332	    -12.51141768	    -27.72107044	    -27.72107044	      9.07205970	     10.97602281	      0.00001318	     52.13915936	     -0.00000000	     -9.99811353	   -101.98648811	   -101.98648811	      6.49999992	      0.00000000	     -0.00000000	    -11.68713682	     -6.32409921	    -10.42163675	     -0.00000000	     -8.91003344	     -0.00000000	     72.06682857	     46.23690339	      0.00000000	      4.87402477	      0.00000000	     -8.91003344	      0.00000000	     72.06682857	     46.23690339	      0.00000000	      4.87402477	      0.00000000	      0.00000000	      0.00000000	     -0.00000000	    -14.97958480	    -69.39879393	   -247.18241794	     -0.01696452	     -1.96614843	      0.46642077	    449.00463748	      8.36729132	   -167.97488255	   -749.21757517	   -749.21757517	    458.16646589	    748.20217822	      0.00000000	     -0.00000000	     -0.00000000	      0.00000000	     -0.00000000	      0.00000000	     -0.00000000	      0.00000000	      0.00000000	    -64.23048410	     71.67004870	    261.72269497	     -0.00000000	     -0.00000000	      0.00000000	      0.00000000	     -0.00000000	      0.00000000	      0.00000000	      0.00000000	      0.00000000	     -0.00000000	     -0.00000000	      0.00000000	      0.00000000	     -0.00000000	      0.25978160	      0.05297514	      0.18935814	      0.08847907	      0.19553423	      0.06782435	      0.20848972	      0.07340016	      0.23749247	      0.06139075	      0.28387461	      0.03818138	      0.21480954	      0.07586897	      0.47800071	      0.24368316	      0.34707569	      0.11835153	      0.24652658	      0.17268822	      0.03311657	      0.45917420	      0.03311657	      0.11056855	      0.03311657	      0.13159930	      0.03312324	      0.07753784	      0.03920217	      0.10623015	      0.05376222	      0.13647218	      0.05709340	      0.08933734	      0.03311657	      0.06884132	      0.03311657	      0.35116244	      0.10285056	      0.09688712	      0.09544828	      0.11001580	      0.07853453	      0.13734013	      0.03311657	      0.08845445	      0.03311657	      0.08133884	      0.09676837	      0.04585725	      0.14990939	      0.01844498	      0.20002068	      0.01831381	      0.15097354	      0.10176162	      0.13831218	      0.07549752	      0.17371412	      0.07696668	      0.14161347	      0.07103733	      0.32232853	      0.05487496	      0.32607164	      0.05868940	      0.39566626	      0.04997335	      0.46610000	      0.02852670	      0.46610000	      0.02381427	      0.46610000	      0.03294238	      0.22838863	      0.09355092	      0.50000000	      0.05490579	      0.50000000	      0.05089896	      0.50000000	      0.08336695	      0.50000000	      0.09776458	      0.46610000	      0.10485225	      0.13380689	      0.13470713	      0.08369726	      0.12271078	      0.03311657	      0.09351064	      0.05952103	      0.08525493	      0.15642612	      0.13376447	      0.05656070	      0.10618769
